<svg width="95" height="95" viewBox="0 0 95 95" fill="none" xmlns="http://www.w3.org/2000/svg">
<rect width="95" height="95" rx="11.6923" fill="white"/>
<path d="M20.1446 21.5689C19.6236 20.5702 20.3481 19.375 21.4745 19.375H76V36.625H32.5464C29.7521 36.625 27.1895 35.0716 25.897 32.5942L20.1446 21.5689Z" fill="#ED1C24"/>
<path d="M29.8946 41.0689C29.3736 40.0702 30.0981 38.875 31.2245 38.875H76V56.125H42.2964C39.5021 56.125 36.9395 54.5716 35.647 52.0942L29.8946 41.0689Z" fill="#ED1C24"/>
<path d="M40.0196 60.5689C39.4986 59.5702 40.2231 58.375 41.3495 58.375H76V75.625H52.4214C49.6271 75.625 47.0645 74.0716 45.772 71.5942L40.0196 60.5689Z" fill="#ED1C24"/>
</svg>
