<svg width="209" height="48" viewBox="0 0 209 48" fill="none" xmlns="http://www.w3.org/2000/svg">
<path d="M1.90788 7V2.68984H0.346942V1.92695H4.37936V2.68984H2.81491V7H1.90788ZM12.0699 7L13.8699 1.92695H14.893L16.693 7H15.7437L15.3183 5.68867H13.441L13.0191 7H12.0699ZM14.3516 2.86914L13.6695 4.98906H15.0933L14.4113 2.86914H14.3516ZM24.9284 7L26.5843 4.44414V4.43359L24.9425 1.92695H26.0148L27.1925 3.83594H27.2312L28.4054 1.92695H29.4249L27.7269 4.4582V4.46875L29.3968 7H28.3491L27.1503 5.1332H27.1187L25.9198 7H24.9284ZM38.0436 7V1.92695H38.9506V7H38.0436Z" fill="#ED1C24"/>
<path d="M0.804207 10.5031C0.447228 9.81887 0.943618 9 1.71536 9H39.0728V20.8186H9.30112C7.38666 20.8186 5.63094 19.7543 4.74538 18.057L0.804207 10.5031Z" fill="#ED1C24"/>
<path d="M7.48429 23.8634C7.12731 23.1792 7.6237 22.3604 8.39544 22.3604H39.0728V34.179H15.9812C14.0667 34.179 12.311 33.1147 11.4255 31.4173L7.48429 23.8634Z" fill="#ED1C24"/>
<path d="M14.4213 37.2235C14.0643 36.5393 14.5607 35.7205 15.3325 35.7205H39.0728V47.5391H22.9182C21.0038 47.5391 19.248 46.4748 18.3625 44.7775L14.4213 37.2235Z" fill="#ED1C24"/>
<path d="M40.82 47.0421V8.63827H47.6825V41.2669H65.291V47.0421H40.82Z" fill="#ED1C24"/>
<path d="M87.9533 48.0002C76.702 48.0002 69.7862 40.2023 69.7862 27.8535V27.8003C69.7862 15.4248 76.8084 7.68018 87.9533 7.68018C99.1249 7.68018 106.094 15.4248 106.094 27.8003V27.8535C106.094 40.2023 99.1515 48.0002 87.9533 48.0002ZM87.9533 42.0653C94.7892 42.0653 99.0983 36.4764 99.0983 27.8535V27.8003C99.0983 19.1241 94.7626 13.6151 87.9533 13.6151C81.144 13.6151 76.7818 19.1241 76.7818 27.8003V27.8535C76.7818 36.4764 81.0376 42.0653 87.9533 42.0653Z" fill="#ED1C24"/>
<path d="M122.452 47.0421V31.8988L108.993 8.63827H116.494L125.644 25.1123H126.096L135.246 8.63827H142.747L129.288 31.8988V47.0421H122.452Z" fill="#ED1C24"/>
<path d="M142.295 47.0421L155.914 8.63827H163.654L177.272 47.0421H170.091L166.872 37.1151H152.668L149.477 47.0421H142.295ZM159.558 15.7708L154.397 31.8189H165.17L160.01 15.7708H159.558Z" fill="#ED1C24"/>
<path d="M183.869 47.0421V8.63827H190.732V41.2669H208.34V47.0421H183.869Z" fill="#ED1C24"/>
</svg>
